# xmcd
#
# Track frame offsets:
#	150
#	15009
#	32887
#	48296
#	65249
#	78346
#	93819
#	123126
#	144549
#	165781
#	180169
#
# Disc length: 3057 seconds
# Revision: 0
# Processed by: cddbd v1.5.2PL0 Copyright (c) Steve Scherf et al.
# Submitted via: dBpowerAMP V12.0
#
DISCID=740bef0b
DTITLE=Dehlia Low - Live
DYEAR=1900
DGENRE=Bluegrass
TTITLE0=Windy Mountain
TTITLE1=Over Yonder in the Graveyard
TTITLE2=Climbing Devil's Pass
TTITLE3=Take Me Back
TTITLE4=Bowling Green
TTITLE5=Wilkins County Wood
TTITLE6=Anatori/Plains of Tellico
TTITLE7=Angeline the Baker
TTITLE8=River is Rising
TTITLE9=You Keep Walkin'
TTITLE10=Mystery Train
EXTD=
EXTT0=
EXTT1=
EXTT2=
EXTT3=
EXTT4=
EXTT5=
EXTT6=
EXTT7=
EXTT8=
EXTT9=
EXTT10=
PLAYORDER=
